<svg xmlns="http://www.w3.org/2000/svg" viewBox="0 0 64 64">
  <defs>
    <radialGradient id="bg" cx="50%" cy="35%" r="75%">
      <stop offset="0%" stop-color="#1b2430" />
      <stop offset="100%" stop-color="#090c10" />
    </radialGradient>
    <linearGradient id="snake" x1="0%" y1="0%" x2="100%" y2="100%">
      <stop offset="0%" stop-color="#56606d" />
      <stop offset="100%" stop-color="#2d333b" />
    </linearGradient>
  </defs>

  <circle cx="32" cy="32" r="30" fill="url(#bg)" />

  <path
    d="M12 45c0-10 8-18 18-18h8c6 0 11-5 11-11 0-5-4-9-9-9s-9 4-9 9"
    fill="none"
    stroke="url(#snake)"
    stroke-linecap="round"
    stroke-width="10"
  />
  <path
    d="M12 45c0-10 8-18 18-18h8c6 0 11-5 11-11 0-5-4-9-9-9s-9 4-9 9"
    fill="none"
    stroke="#6f7986"
    stroke-linecap="round"
    stroke-width="3"
    opacity="0.35"
  />

  <circle cx="40" cy="16" r="10" fill="url(#snake)" />
  <path
    d="M31 14h18a2 2 0 0 1 2 2v3a2 2 0 0 1-2 2H31a2 2 0 0 1-2-2v-3a2 2 0 0 1 2-2z"
    fill="#050608"
  />
  <path d="M39 14v7" stroke="#232a33" stroke-width="1.4" />
  <path d="M45 14v7" stroke="#232a33" stroke-width="1.4" />
  <path d="M31 16h20" stroke="#6ea3b8" stroke-opacity="0.5" stroke-width="1.2" />
  <path
    d="M48.5 20c0 2.8-3.8 5-8.5 5s-8.5-2.2-8.5-5"
    fill="none"
    stroke="#1e252d"
    stroke-width="1.4"
    stroke-linecap="round"
  />
  <path d="M39 26l-2.3 3.2" stroke="#cc3b3b" stroke-width="1.8" stroke-linecap="round" />
</svg>
