<svg xmlns="http://www.w3.org/2000/svg" viewBox="0 0 64 64">
  <defs>
    <radialGradient id="bg" cx="35%" cy="30%" r="80%">
      <stop offset="0%" stop-color="#16202b" />
      <stop offset="100%" stop-color="#06090f" />
    </radialGradient>
    <linearGradient id="skin" x1="0%" y1="0%" x2="100%" y2="100%">
      <stop offset="0%" stop-color="#4b5e71" />
      <stop offset="100%" stop-color="#243244" />
    </linearGradient>
    <linearGradient id="shine" x1="0%" y1="0%" x2="100%" y2="0%">
      <stop offset="0%" stop-color="#89d3f0" stop-opacity="0.7" />
      <stop offset="100%" stop-color="#89d3f0" stop-opacity="0.05" />
    </linearGradient>
  </defs>

  <circle cx="32" cy="32" r="30" fill="url(#bg)" />

  <path
    d="M13 45c0-9 7-16 16-16h9c6 0 10-4 10-9 0-4-3-8-8-8s-8 4-8 8"
    fill="none"
    stroke="url(#skin)"
    stroke-width="9"
    stroke-linecap="round"
  />
  <path
    d="M13 45c0-9 7-16 16-16h9c6 0 10-4 10-9 0-4-3-8-8-8s-8 4-8 8"
    fill="none"
    stroke="#6b8096"
    stroke-width="2.3"
    stroke-linecap="round"
    opacity="0.45"
  />

  <circle cx="40" cy="20" r="10.5" fill="url(#skin)" />

  <g transform="translate(29.4 16.5)">
    <rect x="0" y="0" width="22" height="8.8" rx="2.6" fill="#050608" />
    <rect x="0.8" y="0.9" width="9.8" height="6.5" rx="1.8" fill="#0f141b" />
    <rect x="11.4" y="0.9" width="9.8" height="6.5" rx="1.8" fill="#0f141b" />
    <rect x="10.3" y="2.9" width="1.4" height="1.6" rx="0.6" fill="#1a222c" />
    <path d="M1.5 2.1h19" stroke="url(#shine)" stroke-width="1.1" />
  </g>

  <path
    d="M34 31.2c1.4 1.6 3.4 2.5 5.7 2.5s4.3-0.9 5.7-2.5"
    fill="none"
    stroke="#18222d"
    stroke-width="1.5"
    stroke-linecap="round"
  />
  <path
    d="M39 34.2l-1.4 2"
    fill="none"
    stroke="#de4d4d"
    stroke-width="1.7"
    stroke-linecap="round"
  />
</svg>
