<svg xmlns="http://www.w3.org/2000/svg" viewBox="0 0 64 64">
  <defs>
    <linearGradient id="bg" x1="0%" y1="0%" x2="100%" y2="100%">
      <stop offset="0%" stop-color="#11161f" />
      <stop offset="100%" stop-color="#070a10" />
    </linearGradient>
    <linearGradient id="snakeBody" x1="0%" y1="10%" x2="100%" y2="90%">
      <stop offset="0%" stop-color="#3c4f5f" />
      <stop offset="100%" stop-color="#1c2733" />
    </linearGradient>
  </defs>

  <rect x="2" y="2" width="60" height="60" rx="16" fill="url(#bg)" />

  <path
    d="M14 46c0-8 6-14 14-14h8c6 0 10-4 10-9 0-4-3-7-7-7-4 0-7 3-7 7"
    fill="none"
    stroke="url(#snakeBody)"
    stroke-linecap="round"
    stroke-width="9"
  />
  <path
    d="M14 46c0-8 6-14 14-14h8c6 0 10-4 10-9 0-4-3-7-7-7-4 0-7 3-7 7"
    fill="none"
    stroke="#5e7385"
    stroke-linecap="round"
    stroke-width="2.2"
    opacity="0.5"
  />

  <circle cx="39" cy="20" r="10" fill="url(#snakeBody)" />
  <path
    d="M29.5 18h19a2.2 2.2 0 0 1 2.2 2.2v2.7a2.2 2.2 0 0 1-2.2 2.2h-19a2.2 2.2 0 0 1-2.2-2.2v-2.7a2.2 2.2 0 0 1 2.2-2.2z"
    fill="#040506"
  />
  <path d="M39 18v7" stroke="#1c222c" stroke-width="1.3" />
  <path d="M45 18v7" stroke="#1c222c" stroke-width="1.3" />
  <path d="M30 20h20" stroke="#6cb7d0" stroke-width="1.1" stroke-opacity="0.55" />

  <path
    d="M32.5 30.5c1.4 1.9 3.8 3.2 6.5 3.2 2.7 0 5.1-1.3 6.5-3.2"
    fill="none"
    stroke="#151c25"
    stroke-width="1.6"
    stroke-linecap="round"
  />
  <path
    d="M37.4 34.4l-1.5 2.1"
    fill="none"
    stroke="#d64a4a"
    stroke-width="1.7"
    stroke-linecap="round"
  />
</svg>
